<svg width="1395" height="143" viewBox="0 0 1395 143" fill="none" xmlns="http://www.w3.org/2000/svg">
<path d="M59.8482 143H16.6863V136.283H9.7893V134.983H6.89701V128.267H0V13.2167H6.89701V0H90.996V6.71667H97.6706V8.01667H100.785V13.2167H104.568V14.7333H107.46V21.2333H114.357V89.9167H107.46V96.6333H100.785V103.35H66.7453V136.283H59.8482V143Z" fill="#D56F54"/>
<path d="M200.078 143H163.59V134.983H159.14V143H122.653V136.283H115.979V134.983H112.864V129.783H109.082V128.267H106.189V121.767H99.2923V13.2167H106.189V6.71667H112.864V0H190.288V6.71667H196.963V8.01667H200.078V13.2167H203.86V14.7333H206.752V21.2333H213.649V129.783H206.752V136.283H200.078V143Z" fill="#D56F54"/>
<path d="M306.044 143H262.882V136.283H258.433V143H215.271V136.283H208.374V134.983H205.482V128.267H198.585V13.2167H205.482V0H289.581V6.71667H296.255V8.01667H299.37V13.2167H303.152V14.7333H306.044V21.2333H312.941V136.283H306.044V143Z" fill="#D56F54"/>
<path d="M398.662 143H362.175V134.983H357.725V143H321.238V136.283H314.563V134.983H311.448V129.783H307.666V128.267H304.774V121.767H297.877V13.2167H304.774V6.71667H311.448V0H388.873V6.71667H395.547V8.01667H398.662V13.2167H402.444V14.7333H405.337V21.2333H412.234V129.783H405.337V136.283H398.662V143Z" fill="#D56F54"/>
<path d="M491.057 143H413.855V136.283H406.958V134.983H404.066V128.267H397.169V92.7333H404.066V86.2333H410.741V83.4167H406.958V81.9H404.066V75.4H397.169V13.2167H404.066V0H488.165V8.01667H497.954V21.2333H504.629V56.7667H497.954V61.1H504.629V129.783H497.954V136.283H491.057V143Z" fill="#D56F54"/>
<path d="M590.294 143H512.869V136.283H506.195V134.983H503.08V129.783H499.298V128.267H496.406V121.767H489.509V13.2167H496.406V6.71667H503.08V0H580.505V6.71667H587.179V8.01667H590.294V13.2167H594.076V14.7333H596.968V21.2333H603.865V129.783H596.968V136.283H590.294V143Z" fill="#D56F54"/>
<path d="M689.586 143H612.162V136.283H605.487V134.983H602.372V129.783H598.59V128.267H595.698V121.767H588.801V13.2167H595.698V6.71667H602.372V0H679.797V6.71667H686.471V8.01667H689.586V13.2167H693.368V14.7333H696.261V21.2333H703.158V70.2H696.261V81.0333H703.158V129.783H696.261V136.283H689.586V143Z" fill="#D56F54"/>
<path d="M741.267 143H704.779V134.983H694.99V121.767H688.093V13.2167H694.99V0H731.477V6.71667H738.152V8.01667H741.267V13.2167H745.049V14.7333H747.941V21.2333H754.838V129.783H747.941V136.283H741.267V143Z" fill="#D56F54"/>
<path d="M840.589 143H804.101V134.983H799.652V143H763.164V136.283H756.49V134.983H753.375V129.783H749.593V128.267H746.7V121.767H739.803V13.2167H746.7V6.71667H753.375V0H830.799V6.71667H837.474V8.01667H840.589V13.2167H844.371V14.7333H847.263V21.2333H854.16V129.783H847.263V136.283H840.589V143Z" fill="#D56F54"/>
<path d="M939.881 143H862.456V136.283H855.782V134.983H852.667V129.783H848.885V128.267H845.993V121.767H839.096V13.2167H845.993V0H889.154V6.71667H896.052V8.01667H898.944V14.7333H905.841V79.5167H923.195V86.2333H930.092V87.5333H932.984V92.7333H936.766V94.25H939.881V100.75H946.555V136.283H939.881V143Z" fill="#D56F54"/>
<path d="M984.609 143H948.121V134.983H938.332V121.767H931.435V13.2167H938.332V0H974.82V6.71667H981.494V8.01667H984.609V13.2167H988.391V14.7333H991.283V21.2333H998.18V129.783H991.283V136.283H984.609V143Z" fill="#D56F54"/>
<path d="M1097.5 143H999.832V134.983H990.042V121.767H983.145V79.5167H990.042V73.0167H996.717V70.2H992.935V62.1833H983.145V13.2167H990.042V6.71667H996.717V0H1094.39V8.01667H1104.4V21.2333H1111.07V63.4833H1104.4V70.2H1097.5V73.0167H1101.28V81.0333H1111.07V129.783H1104.4V136.283H1097.5V143Z" fill="#D56F54"/>
<path d="M1196.69 143H1119.27V136.283H1112.59V134.983H1109.48V129.783H1105.7V128.267H1102.81V121.767H1095.91V13.2167H1102.81V0H1180.01V6.71667H1186.9V8.01667H1189.8V13.2167H1193.58V14.7333H1196.69V21.2333H1203.37V56.7667H1196.69V61.1H1203.37V96.6333H1196.69V100.75H1203.37V136.283H1196.69V143Z" fill="#D56F54"/>
<path d="M1295.71 143H1252.55V136.283H1248.1V143H1204.93V136.283H1198.04V134.983H1195.15V128.267H1188.25V13.2167H1195.15V0H1279.24V6.71667H1285.92V8.01667H1289.03V13.2167H1292.82V14.7333H1295.71V21.2333H1302.6V136.283H1295.71V143Z" fill="#D56F54"/>
<path d="M1381.43 143H1304.23V136.283H1297.33V134.983H1294.44V128.267H1287.54V92.7333H1294.44V86.2333H1301.11V83.4167H1297.33V81.9H1294.44V75.4H1287.54V13.2167H1294.44V0H1378.54V8.01667H1388.33V21.2333H1395V56.7667H1388.33V61.1H1395V129.783H1388.33V136.283H1381.43V143Z" fill="#D56F54"/>
<path d="M52.5182 130H31.9923V123.237H25V26.7515H31.9923V13H94.0212V19.763H100.788V26.7515H107.78V74.9942H100.788V81.7572H94.0212V88.7457H59.5106V123.237H52.5182V130ZM73.2697 68.0058V61.2428H80.2621V40.5029H73.2697V33.5145H59.5106V40.5029H52.5182V61.2428H59.5106V68.0058H73.2697Z" fill="white"/>
<path d="M192.043 130H178.283V109.486H171.291V102.497H157.532V109.486H150.54V130H136.781V123.237H130.014V116.249H123.021V26.7515H130.014V19.763H136.781V13H192.043V19.763H198.809V26.7515H205.802V116.249H198.809V123.237H192.043V130ZM171.291 74.9942V68.0058H178.283V47.4913H171.291V40.5029H157.532V47.4913H150.54V68.0058H157.532V74.9942H171.291Z" fill="white"/>
<path d="M296.831 130H276.305V109.486H269.313V95.7341H262.32V88.7457H255.553V123.237H248.561V130H228.035V123.237H221.043V26.7515H228.035V13H290.064V19.763H296.831V26.7515H303.823V74.9942H296.831V81.7572H290.064V88.7457H296.831V95.7341H303.823V123.237H296.831V130ZM269.313 68.0058V61.2428H276.305V40.5029H269.313V33.5145H255.553V40.5029H248.561V61.2428H255.553V68.0058H269.313Z" fill="white"/>
<path d="M388.085 130H374.326V109.486H367.334V102.497H353.575V109.486H346.582V130H332.823V123.237H326.057V116.249H319.064V26.7515H326.057V19.763H332.823V13H388.085V19.763H394.852V26.7515H401.845V116.249H394.852V123.237H388.085V130ZM367.334 74.9942V68.0058H374.326V47.4913H367.334V40.5029H353.575V47.4913H346.582V68.0058H353.575V74.9942H367.334Z" fill="white"/>
<path d="M479.115 130H424.078V123.237H417.086V109.486H424.078V102.497H430.845V95.7341H458.363V81.7572H430.845V74.9942H424.078V68.0058H417.086V26.7515H424.078V13H486.107V26.7515H492.874V40.5029H451.596V54.2543H479.115V61.2428H486.107V68.0058H492.874V116.249H486.107V123.237H479.115V130Z" fill="white"/>
<path d="M577.3 130H522.038V123.237H515.271V116.249H508.279V26.7515H515.271V19.763H522.038V13H577.3V19.763H584.067V26.7515H591.059V116.249H584.067V123.237H577.3V130ZM556.548 102.497V95.7341H563.541V47.4913H556.548V40.5029H542.789V47.4913H535.797V95.7341H542.789V102.497H556.548Z" fill="white"/>
<path d="M675.321 130H620.059V123.237H613.292V116.249H606.3V26.7515H613.292V19.763H620.059V13H675.321V19.763H682.088V26.7515H689.08V54.2543H682.088V61.2428H661.562V47.4913H654.57V40.5029H640.811V47.4913H633.818V95.7341H640.811V102.497H654.57V95.7341H661.562V81.7572H682.088V88.7457H689.08V116.249H682.088V123.237H675.321V130Z" fill="white"/>
<path d="M725.073 130H711.314V116.249H704.321V26.7515H711.314V13H725.073V19.763H731.84V26.7515H738.832V116.249H731.84V123.237H725.073V130Z" fill="white"/>
<path d="M823.124 130H809.365V109.486H802.373V102.497H788.614V109.486H781.621V130H767.862V123.237H761.095V116.249H754.103V26.7515H761.095V19.763H767.862V13H823.124V19.763H829.891V26.7515H836.883V116.249H829.891V123.237H823.124V130ZM802.373 74.9942V68.0058H809.365V47.4913H802.373V40.5029H788.614V47.4913H781.621V68.0058H788.614V74.9942H802.373Z" fill="white"/>
<path d="M921.146 130H865.884V123.237H859.117V116.249H852.125V26.7515H859.117V13H879.643V19.763H886.635V95.7341H914.153V102.497H921.146V109.486H927.912V123.237H921.146V130Z" fill="white"/>
<path d="M964.069 130H950.31V116.249H943.317V26.7515H950.31V13H964.069V19.763H970.836V26.7515H977.828V116.249H970.836V123.237H964.069V130Z" fill="white"/>
<path d="M1075.88 130H1000.09V116.249H993.099V95.7341H1000.09V88.7457H1006.86V81.7572H1013.85V74.9942H1020.62V61.2428H1027.61V54.2543H1034.38V47.4913H1041.37V40.5029H1020.62V47.4913H1013.85V54.2543H993.099V26.7515H1000.09V19.763H1006.86V13H1082.65V26.7515H1089.64V47.4913H1082.65V54.2543H1075.88V61.2428H1068.89V68.0058H1062.12V81.7572H1055.13V88.7457H1048.36V95.7341H1041.37V102.497H1062.12V95.7341H1068.89V88.7457H1089.64V116.249H1082.65V123.237H1075.88V130Z" fill="white"/>
<path d="M1174.02 130H1118.76V123.237H1111.99V116.249H1105V26.7515H1111.99V13H1167.03V19.763H1174.02V26.7515H1180.79V40.5029H1139.51V54.2543H1167.03V61.2428H1174.02V68.0058H1180.79V81.7572H1139.51V95.7341H1167.03V102.497H1174.02V109.486H1180.79V123.237H1174.02V130Z" fill="white"/>
<path d="M1271.98 130H1251.45V109.486H1244.46V95.7341H1237.47V88.7457H1230.7V123.237H1223.71V130H1203.18V123.237H1196.19V26.7515H1203.18V13H1265.21V19.763H1271.98V26.7515H1278.97V74.9942H1271.98V81.7572H1265.21V88.7457H1271.98V95.7341H1278.97V123.237H1271.98V130ZM1244.46 68.0058V61.2428H1251.45V40.5029H1244.46V33.5145H1230.7V40.5029H1223.71V61.2428H1230.7V68.0058H1244.46Z" fill="white"/>
<path d="M1356.24 130H1301.2V123.237H1294.21V109.486H1301.2V102.497H1307.97V95.7341H1335.49V81.7572H1307.97V74.9942H1301.2V68.0058H1294.21V26.7515H1301.2V13H1363.23V26.7515H1370V40.5029H1328.72V54.2543H1356.24V61.2428H1363.23V68.0058H1370V116.249H1363.23V123.237H1356.24V130Z" fill="white"/>
</svg>
